<svg width="1027" height="900" viewBox="0 0 1027 900" fill="none" xmlns="http://www.w3.org/2000/svg">
<path d="M154.486 401.803C530.573 39.2437 796.221 -264.415 819.437 -405.716L1146.94 -617.209L1561.49 -652L1801.94 -451.494C1805.25 -379.775 1676.6 -281.47 1376.6 -21.1829C889.083 401.803 931.574 755.207 743.158 978.603C405.709 1378.7 -315.622 855.003 154.486 401.803Z" fill="#FF7200" fill-opacity="0.27"/>
<path d="M293 440.5C519.8 242.5 680 76.6667 694 -0.5L891.5 -116L1141.5 -135L1286.5 -25.5C1288.5 13.6667 1210.91 67.3527 1030 209.5C736 440.5 761.624 633.5 648 755.5C444.5 974 9.4998 688 293 440.5Z" fill="#FF7200" fill-opacity="0.27"/>
</svg>
